Point(1) = {1708.38415345503, -31.8360615508705, 100, 1e+022};
Point(2) = {1690.25385819654, -9.92448259835618, 100, 1e+022};
Point(3) = {1705.66292768934, 2.82544200400414, 100, 1e+022};
Point(4) = {1708.1267070693, -0.152187187122992, 100, 1e+022};
Point(5) = {1707.76782692294, 44.0151194790752, 110, 1e+022};
Point(6) = {1697.65862511963, 31.0834766157724, 110, 1e+022};
Point(7) = {1697.65862511963, 31.0834766157725, 90, 1e+022};
Point(8) = {1707.76782692294, 44.0151194790758, 89.9999999999999, 1e+022};
Point(9) = {1707.63725239054, 60.0849006409295, 99.9999999999999, 1e+022};
Point(10) = {1700, 1000, 2000, 1e+022};
Point(11) = {-16.0254037844384, 1972.24318643355, 2000, 1e+022};
Point(12) = {-1716.02540378444, 972.243186433546, 2000, 1e+022};
Point(13) = {-1700, -1000, 2000, 1e+022};
Point(14) = {16.0254037844385, -1972.24318643355, 2000, 1e+022};
Point(15) = {1716.02540378444, -972.243186433546, 2000, 1e+022};
Point(16) = {-16.0254037844384, 1972.24318643355, 0, 1e+022};
Point(17) = {1700, 1000, 0, 1e+022};
Point(18) = {-1716.02540378444, 972.243186433546, 0, 1e+022};
Point(19) = {-1700, -1000, 0, 1e+022};
Point(20) = {16.0254037844385, -1972.24318643355, 0, 1e+022};
Point(21) = {1716.02540378444, -972.243186433546, 0, 1e+022};
Point(22) = {1708.25645795987, -16.1206029167529, 2000, 1e+022};
Point(23) = {1908.24985595974, -14.4955624657499, 2000, 1e+022};
Point(24) = {1907.76234382444, 45.5024569342098, 2000, 1e+022};
Point(25) = {1707.76894582457, 43.8774164832067, 2000, 1e+022};
Point(26) = {1908.24985595974, -14.4955624657499, 1990, 1e+022};
Point(27) = {1708.25645795987, -16.1206029167529, 1990, 1e+022};
Point(28) = {1907.76234382444, 45.5024569342098, 1990, 1e+022};
Point(29) = {1707.76894582457, 43.8774164832067, 1990, 1e+022};
Point(30) = {-840.167377329705, 1487.45379023045, 2000, 1e+022};
Point(31) = {-941.571402642384, 1659.84063326201, 2000, 1e+022};
Point(32) = {-993.28745555185, 1629.4194256682, 2000, 1e+022};
Point(33) = {-891.8834302391711, 1457.03258263665, 2000, 1e+022};
Point(34) = {-941.571402642384, 1659.84063326201, 1990, 1e+022};
Point(35) = {-840.167377329705, 1487.45379023045, 1990, 1e+022};
Point(36) = {-993.28745555185, 1629.4194256682, 1990, 1e+022};
Point(37) = {-891.8834302391711, 1457.03258263665, 1990, 1e+022};
Point(38) = {-868.089080630165, -1471.33318731369, 2000, 1e+022};
Point(39) = {-966.678453317351, -1645.34507079625, 2000, 1e+022};
Point(40) = {-914.4748882725841, -1674.92188260241, 2000, 1e+022};
Point(41) = {-815.885515585397, -1500.90999911985, 2000, 1e+022};
Point(42) = {-966.678453317351, -1645.34507079625, 1990, 1e+022};
Point(43) = {-868.089080630165, -1471.33318731369, 1990, 1e+022};
Point(44) = {-914.4748882725841, -1674.92188260241, 1990, 1e+022};
Point(45) = {-815.885515585397, -1500.90999911985, 1990, 1e+022};
Point(46) = {1916.1313021471, -984.463542765097, 2000, 1e+022};
Point(47) = {7715.9398441432, -937.337369686009, 2000, 1e+022};
Point(48) = {7699.68943963317, 1062.59661031265, 2000, 1e+022};
Point(49) = {1899.88089763707, 1015.47043723356, 2000, 1e+022};
Point(50) = {7715.9398441432, -937.337369686009, 1950, 1e+022};
Point(51) = {1916.1313021471, -984.463542765097, 1950, 1e+022};
Point(52) = {7699.68943963317, 1062.59661031265, 1950, 1e+022};
Point(53) = {1899.88089763707, 1015.47043723356, 1950, 1e+022};
Point(54) = {-105.495213939347, 2151.6501560285, 2000, 1e+022};
Point(55) = {-3046.21194800703, 7150.86860394356, 2000, 1e+022};
Point(56) = {-4770.08037832257, 6136.82835081677, 2000, 1e+022};
Point(57) = {-1829.36364425489, 1137.60990290171, 2000, 1e+022};
Point(58) = {-3046.21194800703, 7150.86860394356, 1950, 1e+022};
Point(59) = {-105.495213939347, 2151.6501560285, 1950, 1e+022};
Point(60) = {-4770.08037832257, 6136.82835081677, 1950, 1e+022};
Point(61) = {-1829.36364425489, 1137.60990290171, 1950, 1e+022};
Point(62) = {-1810.63608820775, -1167.18661326339, 2000, 1e+022};
Point(63) = {-4669.72789613617, -6213.53123425755, 2000, 1e+022};
Point(64) = {-2929.6090613106, -7199.42496112941, 2000, 1e+022};
Point(65) = {-70.5172533821827, -2153.08034013526, 2000, 1e+022};
Point(66) = {-4669.72789613617, -6213.53123425755, 1950, 1e+022};
Point(67) = {-1810.63608820775, -1167.18661326339, 1950, 1e+022};
Point(68) = {-2929.6090613106, -7199.42496112941, 1950, 1e+022};
Point(69) = {-70.5172533821827, -2153.08034013526, 1950, 1e+022};
Point(70) = {3.18397651993818e-011, -3.89911787673756e-027, -260000, 1e+022};
Point(71) = {0, 0, 260000, 1e+022};
Point(72) = {1722.12866970244, -48.4471563303715, 100, 1e+022};
Point(73) = {3570.86773704468, -2282.76223278726, 99.9999999999974, 1e+022};
Point(74) = {1737.53773919524, -35.6972317280114, 100, 1e+022};
Point(75) = {3586.27680653748, -2270.0123081849, 99.9999999999974, 1e+022};
Point(76) = {1728.45284851347, 70.47530071126001, 110, 1e+022};
Point(77) = {3514.51780535662, 2355.20109824953, 109.999999999979, 1e+022};
Point(78) = {1728.45284851347, 70.47530071125991, 89.9999999999999, 1e+022};
Point(79) = {3514.51780535662, 2355.20109824953, 89.99999999997949, 1e+022};
Point(80) = {1697.65862511963, 31.0834766157724, 110, 1e+022};
Point(81) = {1716.13515915593, 54.7185710730648, 110, 1e+022};
Point(82) = {1697.65862511963, 31.0834766157725, 90, 1e+022};
Point(83) = {1716.13515915593, 54.718571073065, 89.9999999999998, 1e+022};
Point(84) = {1690.25385819654, -9.92448259835618, 100, 1e+022};
Point(85) = {1709.37874510008, -33.0380868375653, 100, 1e+022};
Point(86) = {1705.66292768934, 2.82544200400411, 100, 1e+022};
Point(87) = {1724.78781459288, -20.2881622352051, 100, 1e+022};
Point(88) = {1709.37874510008, -33.0380868375653, 100, 1e+022};
Point(89) = {1722.12866970244, -48.4471563303714, 100, 1e+022};
Point(90) = {1737.53773919524, -35.6972317280112, 99.9999999999999, 1e+022};
Point(91) = {1724.78781459288, -20.2881622352051, 100, 1e+022};
Point(92) = {1724.01352397503, 48.5597263942954, 99.9999999999997, 1e+022};
Point(93) = {1708.25679433684, 60.8774157518343, 99.9999999999999, 1e+022};
Point(94) = {1736.33121333257, 64.31645603249029, 99.9999999999996, 1e+022};
Point(95) = {1720.57448369438, 76.6341453900293, 99.9999999999998, 1e+022};
Line(1) = {1, 2};
p2 = newp;
Point(p2 + 1) = {1705.568072081672, 2.746955639433139, 98.43565534959775};
Point(p2 + 2) = {1705.285840918529, 2.513429140497291, 96.90983005625057};
Point(p2 + 3) = {1704.823183667821, 2.130612704630372, 95.46009500260458};
Point(p2 + 4) = {1704.191492486532, 1.607932542978336, 94.1221474770753};
Point(p2 + 5) = {1703.406321708009, 0.958258775797058, 92.92893218813455};
Point(p2 + 6) = {1702.487004842651, 0.1975885273781608, 91.90983005625056};
Point(p2 + 7) = {1701.45617852272, -0.6553479762424672, 91.08993475811634};
Point(p2 + 8) = {1700.339225113331, -1.579548607611728, 90.48943483704848};
Point(p2 + 9) = {1699.163647714378, -2.552256479939258, 90.12311659404863};
Point(p2 + 10) = {1697.95839294294, -3.549520297176012, 90};
Point(p2 + 11) = {1696.753138171503, -4.546784114412771, 90.12311659404861};
Point(p2 + 12) = {1695.577560772549, -5.519491986740303, 90.48943483704846};
Point(p2 + 13) = {1694.46060736316, -6.443692618109562, 91.08993475811631};
Point(p2 + 14) = {1693.42978104323, -7.296629121730199, 91.90983005625051};
Point(p2 + 15) = {1692.510464177871, -8.057299370149101, 92.92893218813451};
Point(p2 + 16) = {1691.725293399348, -8.706973137330389, 94.12214747707526};
Point(p2 + 17) = {1691.093602218059, -9.229653298982431, 95.46009500260452};
Point(p2 + 18) = {1690.630944967351, -9.612469734849356, 96.90983005625053};
Point(p2 + 19) = {1690.348713804208, -9.845996233785209, 98.43565534959768};
Spline(2) = {3, p2 + 1, p2 + 2, p2 + 3, p2 + 4, p2 + 5, p2 + 6, p2 + 7, p2 + 8, p2 + 9, p2 + 10, p2 + 11, p2 + 12, p2 + 13, p2 + 14, p2 + 15, p2 + 16, p2 + 17, p2 + 18, p2 + 19, 2};
Line(3) = {3, 4};
p4 = newp;
Point(p4 + 1) = {1708.128291865402, -0.3472277220193778, 98.4356553495977};
Point(p4 + 2) = {1708.133007230786, -0.9275467814371634, 96.90983005625053};
Point(p4 + 3) = {1708.140737057501, -1.878854984164878, 95.46009500260453};
Point(p4 + 4) = {1708.151291011561, -3.177727965040452, 94.12214747707527};
Point(p4 + 5) = {1708.164409219588, -4.792183160562447, 92.92893218813452};
Point(p4 + 6) = {1708.179768667765, -6.682467325747517, 91.90983005625053};
Point(p4 + 7) = {1708.196991155502, -8.802035390955322, 91.08993475811633};
Point(p4 + 8) = {1708.215652607994, -11.09869655597735, 90.48943483704846};
Point(p4 + 9) = {1708.235293518346, -13.51589940074934, 90.12311659404863};
Point(p4 + 10) = {1708.25543026216, -15.99412436899671, 90};
Point(p4 + 11) = {1708.275567005974, -18.47234933724407, 90.12311659404863};
Point(p4 + 12) = {1708.295207916326, -20.88955218201607, 90.48943483704846};
Point(p4 + 13) = {1708.313869368818, -23.18621334703809, 91.08993475811633};
Point(p4 + 14) = {1708.331091856555, -25.30578141224588, 91.90983005625051};
Point(p4 + 15) = {1708.346451304732, -27.19606557743096, 92.92893218813452};
Point(p4 + 16) = {1708.359569512759, -28.81052077295295, 94.12214747707527};
Point(p4 + 17) = {1708.370123466819, -30.10939375382852, 95.46009500260453};
Point(p4 + 18) = {1708.377853293534, -31.06070195655624, 96.90983005625053};
Point(p4 + 19) = {1708.382568658918, -31.64102101597402, 98.4356553495977};
Spline(4) = {4, p4 + 1, p4 + 2, p4 + 3, p4 + 4, p4 + 5, p4 + 6, p4 + 7, p4 + 8, p4 + 9, p4 + 10, p4 + 11, p4 + 12, p4 + 13, p4 + 14, p4 + 15, p4 + 16, p4 + 17, p4 + 18, p4 + 19, 1};
Line(5) = {5, 6};
p6 = newp;
Point(p6 + 1) = {1697.65862511963, 31.0834766157724, 100};
Circle(6) = {7, p6 + 1, 6};
Line(7) = {7, 8};
p8 = newp;
Point(p8 + 1) = {1707.788253280064, 41.50125185970755, 90.12311659404848};
Point(p8 + 2) = {1707.808176672484, 39.04928400417645, 90.48943483704829};
Point(p8 + 3) = {1707.827106520157, 36.71959149870041, 91.08993475811612};
Point(p8 + 4) = {1707.844576707409, 34.56953910457041, 91.9098300562503};
Point(p8 + 5) = {1707.86015706025, 32.65206824734474, 92.92893218813427};
Point(p8 + 6) = {1707.873463938684, 31.0143934232492, 94.12214747707499};
Point(p8 + 7) = {1707.884169683201, 29.69683962158416, 95.46009500260425};
Point(p8 + 8) = {1707.892010682841, 28.73184938965699, 96.90983005625024};
Point(p8 + 9) = {1707.896793866169, 28.14318398959671, 98.4356553495974};
Point(p8 + 10) = {1707.898401455339, 27.94533831722124, 99.99999999999972};
Point(p8 + 11) = {1707.896793866169, 28.14318398959662, 101.564344650402};
Point(p8 + 12) = {1707.892010682841, 28.73184938965681, 103.0901699437492};
Point(p8 + 13) = {1707.884169683201, 29.69683962158389, 104.5399049973952};
Point(p8 + 14) = {1707.873463938684, 31.01439342324884, 105.8778525229245};
Point(p8 + 15) = {1707.86015706025, 32.65206824734431, 107.0710678118653};
Point(p8 + 16) = {1707.844576707409, 34.56953910456993, 108.0901699437493};
Point(p8 + 17) = {1707.827106520157, 36.71959149869987, 108.9100652418835};
Point(p8 + 18) = {1707.808176672484, 39.04928400417585, 109.5105651629514};
Point(p8 + 19) = {1707.788253280064, 41.50125185970695, 109.8768834059513};
Spline(8) = {8, p8 + 1, p8 + 2, p8 + 3, p8 + 4, p8 + 5, p8 + 6, p8 + 7, p8 + 8, p8 + 9, p8 + 10, p8 + 11, p8 + 12, p8 + 13, p8 + 14, p8 + 15, p8 + 16, p8 + 17, p8 + 18, p8 + 19, 5};
p9 = newp;
Point(p9 + 1) = {1707.757582163203, 45.27593997757865, 109.9691733373312};
Point(p9 + 2) = {1707.747400565816, 46.52898709844346, 109.8768834059513};
Point(p9 + 3) = {1707.737344903714, 47.76653538948906, 109.7236992039767};
Point(p9 + 4) = {1707.727477173396, 48.98095495397458, 109.5105651629515};
Point(p9 + 5) = {1707.717858212702, 50.16475849144948, 109.2387953251128};
Point(p9 + 6) = {1707.708547325723, 51.31064745945061, 108.9100652418836};
Point(p9 + 7) = {1707.699601917173, 52.41155707144348, 108.5264016435409};
Point(p9 + 8) = {1707.691077138471, 53.46069985358059, 108.0901699437494};
Point(p9 + 9) = {1707.683025547712, 54.45160749173466, 107.6040596560003};
Point(p9 + 10) = {1707.67549678563, 55.37817071080625, 107.0710678118654};
Point(p9 + 11) = {1707.668537269548, 56.23467694043625, 106.4944804833018};
Point(p9 + 12) = {1707.662189907196, 57.01584553490176, 105.8778525229247};
Point(p9 + 13) = {1707.656493832175, 57.716860330053, 105.2249856471594};
Point(p9 + 14) = {1707.65148416268, 58.33339933656676, 104.5399049973954};
Point(p9 + 15) = {1707.647191784989, 58.86166138644789, 103.8268343236508};
Point(p9 + 16) = {1707.64364316304, 59.2983895684939, 103.0901699437494};
Point(p9 + 17) = {1707.640860175265, 59.64089130823561, 102.334453638559};
Point(p9 + 18) = {1707.638859979711, 59.88705496855414, 101.5643446504022};
Point(p9 + 19) = {1707.637654908247, 60.0353628686259, 100.7845909572784};
Spline(9) = {5, p9 + 1, p9 + 2, p9 + 3, p9 + 4, p9 + 5, p9 + 6, p9 + 7, p9 + 8, p9 + 9, p9 + 10, p9 + 11, p9 + 12, p9 + 13, p9 + 14, p9 + 15, p9 + 16, p9 + 17, p9 + 18, p9 + 19, 9};
p10 = newp;
Point(p10 + 1) = {1707.637654908247, 60.0353628686259, 99.21540904272146};
Point(p10 + 2) = {1707.638859979711, 59.88705496855415, 98.43565534959762};
Point(p10 + 3) = {1707.640860175265, 59.64089130823563, 97.66554636144089};
Point(p10 + 4) = {1707.64364316304, 59.29838956849393, 96.90983005625047};
Point(p10 + 5) = {1707.647191784989, 58.86166138644795, 96.17316567634906};
Point(p10 + 6) = {1707.65148416268, 58.33339933656685, 95.4600950026045};
Point(p10 + 7) = {1707.656493832175, 57.71686033005311, 94.77501435284049};
Point(p10 + 8) = {1707.662189907196, 57.0158455349019, 94.12214747707525};
Point(p10 + 9) = {1707.668537269548, 56.23467694043642, 93.50551951669814};
Point(p10 + 10) = {1707.67549678563, 55.37817071080646, 92.92893218813451};
Point(p10 + 11) = {1707.683025547712, 54.45160749173491, 92.39594034399968};
Point(p10 + 12) = {1707.691077138471, 53.46069985358088, 91.90983005625051};
Point(p10 + 13) = {1707.699601917173, 52.41155707144382, 91.47359835645906};
Point(p10 + 14) = {1707.708547325723, 51.31064745945098, 91.0899347581163};
Point(p10 + 15) = {1707.717858212702, 50.16475849144989, 90.7612046748871};
Point(p10 + 16) = {1707.727477173396, 48.98095495397503, 90.48943483704842};
Point(p10 + 17) = {1707.737344903714, 47.76653538948955, 90.27630079602318};
Point(p10 + 18) = {1707.747400565816, 46.52898709844399, 90.12311659404855};
Point(p10 + 19) = {1707.757582163203, 45.27593997757922, 90.03082666266865};
Spline(10) = {9, p10 + 1, p10 + 2, p10 + 3, p10 + 4, p10 + 5, p10 + 6, p10 + 7, p10 + 8, p10 + 9, p10 + 10, p10 + 11, p10 + 12, p10 + 13, p10 + 14, p10 + 15, p10 + 16, p10 + 17, p10 + 18, p10 + 19, 8};
p11 = newp;
Point(p11 + 1) = {1696.426177333763, 32.04693218836158, 109.8768834059514};
Point(p11 + 2) = {1695.224076502643, 32.98666428722789, 109.5105651629516};
Point(p11 + 3) = {1694.081922338278, 33.87953358930521, 108.9100652418837};
Point(p11 + 4) = {1693.027838466785, 34.70355468911308, 108.0901699437495};
Point(p11 + 5) = {1692.087779931385, 35.43843745240499, 107.0710678118655};
Point(p11 + 6) = {1691.284894093094, 36.06608662661263, 105.8778525229248};
Point(p11 + 7) = {1690.638950665878, 36.57104740601882, 104.5399049973955};
Point(p11 + 8) = {1690.165854920677, 36.94088598036585, 103.0901699437495};
Point(p11 + 9) = {1689.877256044852, 37.16649569652942, 101.5643446504024};
Point(p11 + 10) = {1689.780260300533, 37.24232129454187, 100};
Point(p11 + 11) = {1689.877256044852, 37.16649569652941, 98.43565534959772};
Point(p11 + 12) = {1690.165854920677, 36.94088598036583, 96.90983005625054};
Point(p11 + 13) = {1690.638950665878, 36.57104740601879, 95.46009500260455};
Point(p11 + 14) = {1691.284894093094, 36.06608662661259, 94.12214747707527};
Point(p11 + 15) = {1692.087779931385, 35.43843745240494, 92.92893218813452};
Point(p11 + 16) = {1693.027838466785, 34.70355468911302, 91.90983005625053};
Point(p11 + 17) = {1694.081922338277, 33.87953358930515, 91.08993475811631};
Point(p11 + 18) = {1695.224076502643, 32.98666428722782, 90.48943483704846};
Point(p11 + 19) = {1696.426177333763, 32.04693218836151, 90.12311659404863};
Spline(11) = {6, p11 + 1, p11 + 2, p11 + 3, p11 + 4, p11 + 5, p11 + 6, p11 + 7, p11 + 8, p11 + 9, p11 + 10, p11 + 11, p11 + 12, p11 + 13, p11 + 14, p11 + 15, p11 + 16, p11 + 17, p11 + 18, p11 + 19, 7};
p12 = newp;
Point(p12 + 1) = {1708.382568658918, -31.64102101597402, 101.5643446504023};
Point(p12 + 2) = {1708.377853293534, -31.06070195655623, 103.0901699437495};
Point(p12 + 3) = {1708.370123466819, -30.10939375382852, 104.5399049973955};
Point(p12 + 4) = {1708.359569512759, -28.81052077295294, 105.8778525229247};
Point(p12 + 5) = {1708.346451304732, -27.19606557743095, 107.0710678118655};
Point(p12 + 6) = {1708.331091856555, -25.30578141224589, 108.0901699437495};
Point(p12 + 7) = {1708.313869368818, -23.18621334703808, 108.9100652418837};
Point(p12 + 8) = {1708.295207916326, -20.88955218201605, 109.5105651629515};
Point(p12 + 9) = {1708.275567005974, -18.47234933724407, 109.8768834059514};
Point(p12 + 10) = {1708.25543026216, -15.9941243689967, 110};
Point(p12 + 11) = {1708.235293518346, -13.51589940074933, 109.8768834059514};
Point(p12 + 12) = {1708.215652607994, -11.09869655597734, 109.5105651629515};
Point(p12 + 13) = {1708.196991155502, -8.802035390955309, 108.9100652418837};
Point(p12 + 14) = {1708.179768667765, -6.68246732574751, 108.0901699437495};
Point(p12 + 15) = {1708.164409219588, -4.792183160562447, 107.0710678118655};
Point(p12 + 16) = {1708.151291011561, -3.17772796504045, 105.8778525229247};
Point(p12 + 17) = {1708.140737057501, -1.878854984164878, 104.5399049973955};
Point(p12 + 18) = {1708.133007230786, -0.9275467814371634, 103.0901699437495};
Point(p12 + 19) = {1708.128291865402, -0.347227722019376, 101.5643446504023};
Spline(12) = {1, p12 + 1, p12 + 2, p12 + 3, p12 + 4, p12 + 5, p12 + 6, p12 + 7, p12 + 8, p12 + 9, p12 + 10, p12 + 11, p12 + 12, p12 + 13, p12 + 14, p12 + 15, p12 + 16, p12 + 17, p12 + 18, p12 + 19, 4};
p13 = newp;
Point(p13 + 1) = {1697.95839294294, -3.54952029717604, 100};
Circle(13) = {2, p13 + 1, 3};
Line(14) = {10, 11};
Line(15) = {11, 12};
Line(16) = {12, 13};
Line(17) = {13, 14};
Line(18) = {14, 15};
Line(19) = {15, 10};
Line(20) = {16, 17};
Line(21) = {18, 16};
Line(22) = {19, 18};
Line(23) = {20, 19};
Line(24) = {21, 20};
Line(25) = {17, 21};
Line(26) = {15, 21};
Line(27) = {10, 17};
Line(28) = {14, 20};
Line(29) = {13, 19};
Line(30) = {12, 18};
Line(31) = {11, 16};
Line(32) = {22, 23};
Line(33) = {23, 24};
Line(34) = {24, 25};
Line(35) = {25, 22};
Line(36) = {26, 27};
Line(37) = {28, 26};
Line(38) = {29, 28};
Line(39) = {27, 29};
Line(40) = {25, 29};
Line(41) = {22, 27};
Line(42) = {24, 28};
Line(43) = {23, 26};
Line(44) = {30, 31};
Line(45) = {31, 32};
Line(46) = {32, 33};
Line(47) = {33, 30};
Line(48) = {34, 35};
Line(49) = {36, 34};
Line(50) = {37, 36};
Line(51) = {35, 37};
Line(52) = {33, 37};
Line(53) = {30, 35};
Line(54) = {32, 36};
Line(55) = {31, 34};
Line(56) = {38, 39};
Line(57) = {39, 40};
Line(58) = {40, 41};
Line(59) = {41, 38};
Line(60) = {42, 43};
Line(61) = {44, 42};
Line(62) = {45, 44};
Line(63) = {43, 45};
Line(64) = {41, 45};
Line(65) = {38, 43};
Line(66) = {40, 44};
Line(67) = {39, 42};
Line(68) = {46, 47};
Line(69) = {47, 48};
Line(70) = {48, 49};
Line(71) = {49, 46};
Line(72) = {50, 51};
Line(73) = {52, 50};
Line(74) = {53, 52};
Line(75) = {51, 53};
Line(76) = {49, 53};
Line(77) = {46, 51};
Line(78) = {48, 52};
Line(79) = {47, 50};
Line(80) = {54, 55};
Line(81) = {55, 56};
Line(82) = {56, 57};
Line(83) = {57, 54};
Line(84) = {58, 59};
Line(85) = {60, 58};
Line(86) = {61, 60};
Line(87) = {59, 61};
Line(88) = {57, 61};
Line(89) = {54, 59};
Line(90) = {56, 60};
Line(91) = {55, 58};
Line(92) = {62, 63};
Line(93) = {63, 64};
Line(94) = {64, 65};
Line(95) = {65, 62};
Line(96) = {66, 67};
Line(97) = {68, 66};
Line(98) = {69, 68};
Line(99) = {67, 69};
Line(100) = {65, 69};
Line(101) = {62, 67};
Line(102) = {64, 68};
Line(103) = {63, 66};
p104 = newp;
Point(p104 + 1) = {40672.96091046, -4.98083663597186e-012, -256798.9685547358};
Point(p104 + 2) = {80344.4185374863, -9.839028543517033e-012, -247274.69423674};
Point(p104 + 3) = {118037.5299322821, -1.445495091445721e-011, -231661.6962889757};
Point(p104 + 4) = {152824.165596043, -1.871494442065178e-011, -210344.4185374863};
Point(p104 + 5) = {183847.7631085023, -2.251411388387037e-011, -183847.7631085024};
Point(p104 + 6) = {210344.4185374863, -2.575891114320798e-011, -152824.1655960431};
Point(p104 + 7) = {231661.6962889756, -2.8369438521275e-011, -118037.5299322822};
Point(p104 + 8) = {247274.6942367399, -3.02814161701798e-011, -80344.41853748637};
Point(p104 + 9) = {256798.9685547358, -3.14477648547163e-011, -40672.96091046008};
Point(p104 + 10) = {260000, -3.183976519938188e-011, -4.775964779907271e-011};
Point(p104 + 11) = {256798.9685547358, -3.144776485471631e-011, 40672.96091045998};
Point(p104 + 12) = {247274.69423674, -3.02814161701798e-011, 80344.41853748629};
Point(p104 + 13) = {231661.6962889757, -2.836943852127501e-011, 118037.5299322821};
Point(p104 + 14) = {210344.4185374864, -2.575891114320798e-011, 152824.165596043};
Point(p104 + 15) = {183847.7631085024, -2.251411388387038e-011, 183847.7631085023};
Point(p104 + 16) = {152824.1655960431, -1.871494442065179e-011, 210344.4185374863};
Point(p104 + 17) = {118037.5299322822, -1.445495091445722e-011, 231661.6962889756};
Point(p104 + 18) = {80344.41853748639, -9.839028543517045e-012, 247274.6942367399};
Point(p104 + 19) = {40672.96091046009, -4.980836635971872e-012, 256798.9685547358};
Spline(104) = {70, p104 + 1, p104 + 2, p104 + 3, p104 + 4, p104 + 5, p104 + 6, p104 + 7, p104 + 8, p104 + 9, p104 + 10, p104 + 11, p104 + 12, p104 + 13, p104 + 14, p104 + 15, p104 + 16, p104 + 17, p104 + 18, p104 + 19, 71};
p105 = newp;
Point(p105 + 1) = {-40672.96091046002, 4.980836635971864e-012, 256798.9685547358};
Point(p105 + 2) = {-80344.41853748633, 9.839028543517037e-012, 247274.6942367399};
Point(p105 + 3) = {-118037.5299322822, 1.445495091445721e-011, 231661.6962889757};
Point(p105 + 4) = {-152824.165596043, 1.871494442065179e-011, 210344.4185374863};
Point(p105 + 5) = {-183847.7631085024, 2.251411388387037e-011, 183847.7631085024};
Point(p105 + 6) = {-210344.4185374863, 2.575891114320798e-011, 152824.165596043};
Point(p105 + 7) = {-231661.6962889756, 2.8369438521275e-011, 118037.5299322822};
Point(p105 + 8) = {-247274.6942367399, 3.02814161701798e-011, 80344.41853748635};
Point(p105 + 9) = {-256798.9685547358, 3.14477648547163e-011, 40672.96091046004};
Point(p105 + 10) = {-260000, 3.183976519938188e-011, 1.59198825996909e-011};
Point(p105 + 11) = {-256798.9685547358, 3.14477648547163e-011, -40672.96091046007};
Point(p105 + 12) = {-247274.69423674, 3.02814161701798e-011, -80344.41853748632};
Point(p105 + 13) = {-231661.6962889757, 2.836943852127501e-011, -118037.5299322822};
Point(p105 + 14) = {-210344.4185374863, 2.575891114320798e-011, -152824.165596043};
Point(p105 + 15) = {-183847.7631085024, 2.251411388387038e-011, -183847.7631085024};
Point(p105 + 16) = {-152824.165596043, 1.871494442065179e-011, -210344.4185374863};
Point(p105 + 17) = {-118037.5299322822, 1.445495091445721e-011, -231661.6962889756};
Point(p105 + 18) = {-80344.41853748636, 9.83902854351704e-012, -247274.6942367399};
Point(p105 + 19) = {-40672.96091046005, 4.980836635971868e-012, -256798.9685547358};
Spline(105) = {71, p105 + 1, p105 + 2, p105 + 3, p105 + 4, p105 + 5, p105 + 6, p105 + 7, p105 + 8, p105 + 9, p105 + 10, p105 + 11, p105 + 12, p105 + 13, p105 + 14, p105 + 15, p105 + 16, p105 + 17, p105 + 18, p105 + 19, 70};
Line(106) = {72, 73};
p107 = newp;
Point(p107 + 1) = {1737.442883587572, -35.77571809258213, 98.4356553495977};
Point(p107 + 2) = {1737.160652424429, -36.00924459151798, 96.90983005625053};
Point(p107 + 3) = {1736.697995173721, -36.39206102738491, 95.46009500260453};
Point(p107 + 4) = {1736.066303992432, -36.91474118903695, 94.12214747707527};
Point(p107 + 5) = {1735.281133213909, -37.56441495621822, 92.92893218813452};
Point(p107 + 6) = {1734.361816348551, -38.32508520463713, 91.90983005625053};
Point(p107 + 7) = {1733.33099002862, -39.17802170825775, 91.08993475811633};
Point(p107 + 8) = {1732.214036619231, -40.10222233962701, 90.48943483704846};
Point(p107 + 9) = {1731.038459220277, -41.07493021195455, 90.12311659404863};
Point(p107 + 10) = {1729.83320444884, -42.07219402919129, 90};
Point(p107 + 11) = {1728.627949677403, -43.06945784642805, 90.12311659404863};
Point(p107 + 12) = {1727.452372278449, -44.04216571875558, 90.48943483704846};
Point(p107 + 13) = {1726.33541886906, -44.96636635012484, 91.08993475811633};
Point(p107 + 14) = {1725.304592549129, -45.81930285374547, 91.90983005625053};
Point(p107 + 15) = {1724.385275683771, -46.57997310216437, 92.92893218813452};
Point(p107 + 16) = {1723.600104905248, -47.22964686934565, 94.12214747707527};
Point(p107 + 17) = {1722.968413723959, -47.75232703099769, 95.46009500260453};
Point(p107 + 18) = {1722.505756473251, -48.13514346686462, 96.90983005625053};
Point(p107 + 19) = {1722.223525310108, -48.36866996580047, 98.4356553495977};
Spline(107) = {74, p107 + 1, p107 + 2, p107 + 3, p107 + 4, p107 + 5, p107 + 6, p107 + 7, p107 + 8, p107 + 9, p107 + 10, p107 + 11, p107 + 12, p107 + 13, p107 + 14, p107 + 15, p107 + 16, p107 + 17, p107 + 18, p107 + 19, 72};
Line(108) = {75, 74};
p109 = newp;
Point(p109 + 1) = {3570.962592652348, -2282.683746422689, 98.4356553495951};
Point(p109 + 2) = {3571.244823815491, -2282.450219923754, 96.90983005624791};
Point(p109 + 3) = {3571.707481066199, -2282.067403487887, 95.46009500260192};
Point(p109 + 4) = {3572.339172247488, -2281.544723326234, 94.12214747707266};
Point(p109 + 5) = {3573.124343026011, -2280.895049559053, 92.92893218813191};
Point(p109 + 6) = {3574.043659891369, -2280.134379310634, 91.90983005624791};
Point(p109 + 7) = {3575.0744862113, -2279.281442807014, 91.08993475811371};
Point(p109 + 8) = {3576.191439620689, -2278.357242175644, 90.48943483704585};
Point(p109 + 9) = {3577.367017019642, -2277.384534303317, 90.12311659404601};
Point(p109 + 10) = {3578.57227179108, -2276.38727048608, 89.9999999999974};
Point(p109 + 11) = {3579.777526562517, -2275.390006668843, 90.12311659404602};
Point(p109 + 12) = {3580.953103961471, -2274.417298796516, 90.48943483704588};
Point(p109 + 13) = {3582.07005737086, -2273.493098165146, 91.08993475811376};
Point(p109 + 14) = {3583.10088369079, -2272.640161661526, 91.90983005624797};
Point(p109 + 15) = {3584.020200556149, -2271.879491413107, 92.92893218813198};
Point(p109 + 16) = {3584.805371334672, -2271.229817645926, 94.12214747707273};
Point(p109 + 17) = {3585.437062515961, -2270.707137484274, 95.46009500260202};
Point(p109 + 18) = {3585.899719766669, -2270.324321048407, 96.90983005624801};
Point(p109 + 19) = {3586.181950929813, -2270.090794549471, 98.43565534959518};
Spline(109) = {73, p109 + 1, p109 + 2, p109 + 3, p109 + 4, p109 + 5, p109 + 6, p109 + 7, p109 + 8, p109 + 9, p109 + 10, p109 + 11, p109 + 12, p109 + 13, p109 + 14, p109 + 15, p109 + 16, p109 + 17, p109 + 18, p109 + 19, 75};
p110 = newp;
Point(p110 + 1) = {3578.57227179108, -2276.38727048608, 99.9999999999974};
Circle(110) = {75, p110 + 1, 73};
p111 = newp;
Point(p111 + 1) = {1729.83320444884, -42.0721940291913, 100};
Circle(111) = {72, p111 + 1, 74};
Line(112) = {76, 77};
p113 = newp;
Point(p113 + 1) = {1728.45284851347, 70.47530071126001, 99.9999999999999};
Circle(113) = {78, p113 + 1, 76};
Line(114) = {79, 78};
p115 = newp;
Point(p115 + 1) = {3514.51780535662, 2355.20109824953, 99.99999999997949};
Circle(115) = {77, p115 + 1, 79};
p116 = newp;
Point(p116 + 1) = {3513.285357570753, 2356.164553822119, 90.12311659402812};
Point(p116 + 2) = {3512.083256739633, 2357.104285920985, 90.48943483702796};
Point(p116 + 3) = {3510.941102575268, 2357.997155223063, 91.08993475809581};
Point(p116 + 4) = {3509.887018703775, 2358.821176322871, 91.90983005623002};
Point(p116 + 5) = {3508.946960168375, 2359.556059086162, 92.92893218811402};
Point(p116 + 6) = {3508.144074330085, 2360.18370826037, 94.12214747705477};
Point(p116 + 7) = {3507.498130902868, 2360.688669039776, 95.46009500258404};
Point(p116 + 8) = {3507.025035157667, 2361.058507614123, 96.90983005623004};
Point(p116 + 9) = {3506.736436281843, 2361.284117330287, 98.43565534957722};
Point(p116 + 10) = {3506.639440537523, 2361.3599429283, 99.99999999997952};
Point(p116 + 11) = {3506.736436281843, 2361.284117330287, 101.5643446503818};
Point(p116 + 12) = {3507.025035157667, 2361.058507614123, 103.090169943729};
Point(p116 + 13) = {3507.498130902868, 2360.688669039776, 104.539904997375};
Point(p116 + 14) = {3508.144074330085, 2360.18370826037, 105.8778525229043};
Point(p116 + 15) = {3508.946960168375, 2359.556059086162, 107.071067811845};
Point(p116 + 16) = {3509.887018703775, 2358.821176322871, 108.090169943729};
Point(p116 + 17) = {3510.941102575268, 2357.997155223063, 108.9100652418632};
Point(p116 + 18) = {3512.083256739633, 2357.104285920985, 109.5105651629311};
Point(p116 + 19) = {3513.285357570753, 2356.164553822119, 109.8768834059309};
Spline(116) = {79, p116 + 1, p116 + 2, p116 + 3, p116 + 4, p116 + 5, p116 + 6, p116 + 7, p116 + 8, p116 + 9, p116 + 10, p116 + 11, p116 + 12, p116 + 13, p116 + 14, p116 + 15, p116 + 16, p116 + 17, p116 + 18, p116 + 19, 77};
p117 = newp;
Point(p117 + 1) = {1727.220400727603, 71.43875628384919, 109.8768834059513};
Point(p117 + 2) = {1726.018299896483, 72.37848838271549, 109.5105651629515};
Point(p117 + 3) = {1724.876145732118, 73.27135768479282, 108.9100652418836};
Point(p117 + 4) = {1723.822061860625, 74.09537878460068, 108.0901699437494};
Point(p117 + 5) = {1722.882003325225, 74.8302615478926, 107.0710678118654};
Point(p117 + 6) = {1722.079117486934, 75.45791072210024, 105.8778525229247};
Point(p117 + 7) = {1721.433174059718, 75.96287150150643, 104.5399049973954};
Point(p117 + 8) = {1720.960078314517, 76.33271007585346, 103.0901699437494};
Point(p117 + 9) = {1720.671479438692, 76.55831979201702, 101.5643446504022};
Point(p117 + 10) = {1720.574483694373, 76.63414539002947, 99.99999999999992};
Point(p117 + 11) = {1720.671479438692, 76.558319792017, 98.4356553495976};
Point(p117 + 12) = {1720.960078314517, 76.33271007585343, 96.90983005625043};
Point(p117 + 13) = {1721.433174059718, 75.96287150150639, 95.46009500260442};
Point(p117 + 14) = {1722.079117486934, 75.45791072210018, 94.12214747707516};
Point(p117 + 15) = {1722.882003325225, 74.83026154789253, 92.92893218813441};
Point(p117 + 16) = {1723.822061860624, 74.09537878460061, 91.9098300562504};
Point(p117 + 17) = {1724.876145732117, 73.27135768479273, 91.0899347581162};
Point(p117 + 18) = {1726.018299896483, 72.3784883827154, 90.48943483704835};
Point(p117 + 19) = {1727.220400727603, 71.43875628384909, 90.12311659404851};
Spline(117) = {76, p117 + 1, p117 + 2, p117 + 3, p117 + 4, p117 + 5, p117 + 6, p117 + 7, p117 + 8, p117 + 9, p117 + 10, p117 + 11, p117 + 12, p117 + 13, p117 + 14, p117 + 15, p117 + 16, p117 + 17, p117 + 18, p117 + 19, 78};
Line(118) = {80, 81};
p119 = newp;
Point(p119 + 1) = {1697.65862511963, 31.0834766157724, 100};
Circle(119) = {82, p119 + 1, 80};
Line(120) = {83, 82};
p121 = newp;
Point(p121 + 1) = {1717.367606941798, 53.75511550047563, 109.8768834059512};
Point(p121 + 2) = {1718.569707772917, 52.81538340160932, 109.5105651629513};
Point(p121 + 3) = {1719.711861937283, 51.922514099532, 108.9100652418834};
Point(p121 + 4) = {1720.765945808776, 51.09849299972412, 108.0901699437492};
Point(p121 + 5) = {1721.706004344175, 50.36361023643222, 107.0710678118652};
Point(p121 + 6) = {1722.508890182466, 49.73596106222458, 105.8778525229244};
Point(p121 + 7) = {1723.154833609682, 49.23100028281838, 104.5399049973952};
Point(p121 + 8) = {1723.627929354883, 48.86116170847136, 103.0901699437492};
Point(p121 + 9) = {1723.916528230708, 48.63555199230778, 101.564344650402};
Point(p121 + 10) = {1724.013523975028, 48.55972639429533, 99.99999999999966};
Point(p121 + 11) = {1723.916528230708, 48.6355519923078, 98.43565534959734};
Point(p121 + 12) = {1723.627929354883, 48.86116170847138, 96.90983005625017};
Point(p121 + 13) = {1723.154833609682, 49.23100028281841, 95.46009500260419};
Point(p121 + 14) = {1722.508890182466, 49.73596106222462, 94.12214747707493};
Point(p121 + 15) = {1721.706004344175, 50.36361023643227, 92.9289321881342};
Point(p121 + 16) = {1720.765945808775, 51.09849299972418, 91.90983005625022};
Point(p121 + 17) = {1719.711861937283, 51.92251409953205, 91.08993475811604};
Point(p121 + 18) = {1718.569707772917, 52.81538340160938, 90.48943483704821};
Point(p121 + 19) = {1717.367606941797, 53.75511550047569, 90.1231165940484};
Spline(121) = {81, p121 + 1, p121 + 2, p121 + 3, p121 + 4, p121 + 5, p121 + 6, p121 + 7, p121 + 8, p121 + 9, p121 + 10, p121 + 11, p121 + 12, p121 + 13, p121 + 14, p121 + 15, p121 + 16, p121 + 17, p121 + 18, p121 + 19, 83};
p122 = newp;
Point(p122 + 1) = {1716.13515915593, 54.7185710730648, 99.9999999999998};
Circle(122) = {83, p122 + 1, 81};
p123 = newp;
Point(p123 + 1) = {1696.426177333763, 32.04693218836158, 109.8768834059514};
Point(p123 + 2) = {1695.224076502643, 32.98666428722789, 109.5105651629516};
Point(p123 + 3) = {1694.081922338278, 33.87953358930521, 108.9100652418837};
Point(p123 + 4) = {1693.027838466785, 34.70355468911308, 108.0901699437495};
Point(p123 + 5) = {1692.087779931385, 35.43843745240499, 107.0710678118655};
Point(p123 + 6) = {1691.284894093094, 36.06608662661263, 105.8778525229248};
Point(p123 + 7) = {1690.638950665878, 36.57104740601882, 104.5399049973955};
Point(p123 + 8) = {1690.165854920677, 36.94088598036585, 103.0901699437495};
Point(p123 + 9) = {1689.877256044852, 37.16649569652942, 101.5643446504024};
Point(p123 + 10) = {1689.780260300533, 37.24232129454187, 100};
Point(p123 + 11) = {1689.877256044852, 37.16649569652941, 98.43565534959772};
Point(p123 + 12) = {1690.165854920677, 36.94088598036583, 96.90983005625054};
Point(p123 + 13) = {1690.638950665878, 36.57104740601879, 95.46009500260455};
Point(p123 + 14) = {1691.284894093094, 36.06608662661259, 94.12214747707527};
Point(p123 + 15) = {1692.087779931385, 35.43843745240494, 92.92893218813452};
Point(p123 + 16) = {1693.027838466785, 34.70355468911302, 91.90983005625053};
Point(p123 + 17) = {1694.081922338277, 33.87953358930515, 91.08993475811631};
Point(p123 + 18) = {1695.224076502643, 32.98666428722782, 90.48943483704846};
Point(p123 + 19) = {1696.426177333763, 32.04693218836151, 90.12311659404863};
Spline(123) = {80, p123 + 1, p123 + 2, p123 + 3, p123 + 4, p123 + 5, p123 + 6, p123 + 7, p123 + 8, p123 + 9, p123 + 10, p123 + 11, p123 + 12, p123 + 13, p123 + 14, p123 + 15, p123 + 16, p123 + 17, p123 + 18, p123 + 19, 82};
Line(124) = {84, 85};
p125 = newp;
Point(p125 + 1) = {1705.568072081672, 2.74695563943314, 98.43565534959775};
Point(p125 + 2) = {1705.285840918529, 2.513429140497294, 96.90983005625058};
Point(p125 + 3) = {1704.823183667821, 2.130612704630375, 95.46009500260459};
Point(p125 + 4) = {1704.191492486532, 1.607932542978339, 94.12214747707532};
Point(p125 + 5) = {1703.406321708009, 0.9582587757970624, 92.92893218813457};
Point(p125 + 6) = {1702.487004842651, 0.1975885273781652, 91.90983005625056};
Point(p125 + 7) = {1701.45617852272, -0.6553479762424672, 91.08993475811634};
Point(p125 + 8) = {1700.339225113331, -1.579548607611723, 90.48943483704848};
Point(p125 + 9) = {1699.163647714378, -2.552256479939258, 90.12311659404863};
Point(p125 + 10) = {1697.95839294294, -3.549520297176012, 90};
Point(p125 + 11) = {1696.753138171503, -4.546784114412771, 90.12311659404861};
Point(p125 + 12) = {1695.577560772549, -5.519491986740303, 90.48943483704846};
Point(p125 + 13) = {1694.46060736316, -6.443692618109562, 91.08993475811631};
Point(p125 + 14) = {1693.42978104323, -7.296629121730199, 91.90983005625051};
Point(p125 + 15) = {1692.510464177871, -8.057299370149101, 92.92893218813451};
Point(p125 + 16) = {1691.725293399348, -8.706973137330385, 94.12214747707526};
Point(p125 + 17) = {1691.093602218059, -9.229653298982431, 95.46009500260452};
Point(p125 + 18) = {1690.630944967351, -9.612469734849356, 96.90983005625053};
Point(p125 + 19) = {1690.348713804208, -9.845996233785209, 98.43565534959768};
Spline(125) = {86, p125 + 1, p125 + 2, p125 + 3, p125 + 4, p125 + 5, p125 + 6, p125 + 7, p125 + 8, p125 + 9, p125 + 10, p125 + 11, p125 + 12, p125 + 13, p125 + 14, p125 + 15, p125 + 16, p125 + 17, p125 + 18, p125 + 19, 84};
Line(126) = {87, 86};
p127 = newp;
Point(p127 + 1) = {1709.473600707748, -32.95960047299437, 98.4356553495977};
Point(p127 + 2) = {1709.755831870891, -32.72607397405852, 96.90983005625053};
Point(p127 + 3) = {1710.218489121599, -32.34325753819159, 95.46009500260453};
Point(p127 + 4) = {1710.850180302888, -31.82057737653955, 94.12214747707526};
Point(p127 + 5) = {1711.635351081411, -31.17090360935827, 92.92893218813451};
Point(p127 + 6) = {1712.55466794677, -30.41023336093936, 91.90983005625051};
Point(p127 + 7) = {1713.5854942667, -29.55729685731873, 91.08993475811631};
Point(p127 + 8) = {1714.702447676089, -28.63309622594947, 90.48943483704846};
Point(p127 + 9) = {1715.878025075043, -27.66038835362193, 90.12311659404861};
Point(p127 + 10) = {1717.08327984648, -26.66312453638518, 90};
Point(p127 + 11) = {1718.288534617918, -25.66586071914842, 90.12311659404863};
Point(p127 + 12) = {1719.464112016871, -24.69315284682089, 90.48943483704848};
Point(p127 + 13) = {1720.58106542626, -23.76895221545163, 91.08993475811634};
Point(p127 + 14) = {1721.611891746191, -22.91601571183101, 91.90983005625054};
Point(p127 + 15) = {1722.531208611549, -22.1553454634121, 92.92893218813455};
Point(p127 + 16) = {1723.316379390072, -21.50567169623082, 94.1221474770753};
Point(p127 + 17) = {1723.948070571361, -20.98299153457879, 95.46009500260458};
Point(p127 + 18) = {1724.410727822069, -20.60017509871187, 96.90983005625057};
Point(p127 + 19) = {1724.692958985213, -20.36664859977602, 98.43565534959774};
Spline(127) = {85, p127 + 1, p127 + 2, p127 + 3, p127 + 4, p127 + 5, p127 + 6, p127 + 7, p127 + 8, p127 + 9, p127 + 10, p127 + 11, p127 + 12, p127 + 13, p127 + 14, p127 + 15, p127 + 16, p127 + 17, p127 + 18, p127 + 19, 87};
p128 = newp;
Point(p128 + 1) = {1717.08327984648, -26.6631245363852, 100};
Circle(128) = {87, p128 + 1, 85};
p129 = newp;
Point(p129 + 1) = {1697.95839294294, -3.54952029717604, 100};
Circle(129) = {84, p129 + 1, 86};
Line(130) = {88, 89};
Line(131) = {89, 90};
Line(132) = {90, 91};
Line(133) = {91, 88};
Line(134) = {92, 93};
Line(135) = {94, 92};
Line(136) = {95, 94};
Line(137) = {93, 95};
Line Loop(1) = {1, -2, 3, 4};
Ruled Surface(1) = {1};
Line Loop(2) = {5, -6, 7, 8};
Ruled Surface(2) = {2};
Line Loop(3) = {5, 11, 7, -10, -9};
Line Loop(4) = {1, 13, 3, -12};
Ruled Surface(4) = {4};
Line Loop(5) = {11, 6};
Plane Surface(5) = {5};
Line Loop(6) = {13, 2};
Plane Surface(6) = {6};
Line Loop(7) = {14, 15, 16, 17, 18, 19};
Plane Surface(7) = {7};
Line Loop(8) = {20, 25, 24, 23, 22, 21};
Plane Surface(8) = {8};
Line Loop(9) = {10, 8, 9, 4, 12, 26, -25, -27, -19};
Plane Surface(9) = {9};
Line Loop(10) = {28, -24, -26, -18};
Plane Surface(10) = {10};
Line Loop(11) = {29, -23, -28, -17};
Plane Surface(11) = {11};
Line Loop(12) = {30, -22, -29, -16};
Plane Surface(12) = {12};
Line Loop(13) = {31, -21, -30, -15};
Plane Surface(13) = {13};
Line Loop(14) = {27, -20, -31, -14};
Plane Surface(14) = {14};
Line Loop(15) = {32, 33, 34, 35};
Plane Surface(15) = {15};
Line Loop(16) = {36, 39, 38, 37};
Plane Surface(16) = {16};
Line Loop(17) = {40, -39, -41, -35};
Plane Surface(17) = {17};
Line Loop(18) = {42, -38, -40, -34};
Plane Surface(18) = {18};
Line Loop(19) = {43, -37, -42, -33};
Plane Surface(19) = {19};
Line Loop(20) = {41, -36, -43, -32};
Plane Surface(20) = {20};
Line Loop(21) = {44, 45, 46, 47};
Plane Surface(21) = {21};
Line Loop(22) = {48, 51, 50, 49};
Plane Surface(22) = {22};
Line Loop(23) = {52, -51, -53, -47};
Plane Surface(23) = {23};
Line Loop(24) = {54, -50, -52, -46};
Plane Surface(24) = {24};
Line Loop(25) = {55, -49, -54, -45};
Plane Surface(25) = {25};
Line Loop(26) = {53, -48, -55, -44};
Plane Surface(26) = {26};
Line Loop(27) = {56, 57, 58, 59};
Plane Surface(27) = {27};
Line Loop(28) = {60, 63, 62, 61};
Plane Surface(28) = {28};
Line Loop(29) = {64, -63, -65, -59};
Plane Surface(29) = {29};
Line Loop(30) = {66, -62, -64, -58};
Plane Surface(30) = {30};
Line Loop(31) = {67, -61, -66, -57};
Plane Surface(31) = {31};
Line Loop(32) = {65, -60, -67, -56};
Plane Surface(32) = {32};
Line Loop(33) = {68, 69, 70, 71};
Plane Surface(33) = {33};
Line Loop(34) = {72, 75, 74, 73};
Plane Surface(34) = {34};
Line Loop(35) = {76, -75, -77, -71};
Plane Surface(35) = {35};
Line Loop(36) = {78, -74, -76, -70};
Plane Surface(36) = {36};
Line Loop(37) = {79, -73, -78, -69};
Plane Surface(37) = {37};
Line Loop(38) = {77, -72, -79, -68};
Plane Surface(38) = {38};
Line Loop(39) = {80, 81, 82, 83};
Plane Surface(39) = {39};
Line Loop(40) = {84, 87, 86, 85};
Plane Surface(40) = {40};
Line Loop(41) = {88, -87, -89, -83};
Plane Surface(41) = {41};
Line Loop(42) = {90, -86, -88, -82};
Plane Surface(42) = {42};
Line Loop(43) = {91, -85, -90, -81};
Plane Surface(43) = {43};
Line Loop(44) = {89, -84, -91, -80};
Plane Surface(44) = {44};
Line Loop(45) = {92, 93, 94, 95};
Plane Surface(45) = {45};
Line Loop(46) = {96, 99, 98, 97};
Plane Surface(46) = {46};
Line Loop(47) = {100, -99, -101, -95};
Plane Surface(47) = {47};
Line Loop(48) = {102, -98, -100, -94};
Plane Surface(48) = {48};
Line Loop(49) = {103, -97, -102, -93};
Plane Surface(49) = {49};
Line Loop(50) = {101, -96, -103, -92};
Plane Surface(50) = {50};
Line Loop(51) = {104, 105};
Line Loop(52) = {104, 105};
Line Loop(53) = {106, 109, 108, 107};
Ruled Surface(53) = {53};
Line Loop(54) = {106, -110, 108, -111};
Ruled Surface(54) = {54};
Line Loop(55) = {111, 107};
Plane Surface(55) = {55};
Line Loop(56) = {109, 110};
Plane Surface(56) = {56};
Line Loop(57) = {112, 115, 114, 113};
Ruled Surface(57) = {57};
Line Loop(58) = {112, -116, 114, -117};
Ruled Surface(58) = {58};
Line Loop(59) = {117, 113};
Plane Surface(59) = {59};
Line Loop(60) = {115, 116};
Plane Surface(60) = {60};
Line Loop(61) = {118, 121, 120, 119};
Ruled Surface(61) = {61};
Line Loop(62) = {118, -122, 120, -123};
Ruled Surface(62) = {62};
Line Loop(63) = {123, 119};
Plane Surface(63) = {63};
Line Loop(64) = {121, 122};
Plane Surface(64) = {64};
Line Loop(65) = {124, 127, 126, 125};
Ruled Surface(65) = {65};
Line Loop(66) = {124, -128, 126, -129};
Ruled Surface(66) = {66};
Line Loop(67) = {129, 125};
Plane Surface(67) = {67};
Line Loop(68) = {127, 128};
Plane Surface(68) = {68};
Line Loop(69) = {130, 131, 132, 133};
Plane Surface(69) = {69};
Line Loop(70) = {134, 137, 136, 135};
Plane Surface(70) = {70};
Surface Loop(1) = {1, 2, 3, 4, 5, 6, 7, 8, 9, 10, 11, 12, 13, 14};
Volume(1) = {1};
Surface Loop(2) = {15, 16, 17, 18, 19, 20};
Volume(2) = {2};
Surface Loop(3) = {21, 22, 23, 24, 25, 26};
Volume(3) = {3};
Surface Loop(4) = {27, 28, 29, 30, 31, 32};
Volume(4) = {4};
Surface Loop(5) = {33, 34, 35, 36, 37, 38};
Volume(5) = {5};
Surface Loop(6) = {39, 40, 41, 42, 43, 44};
Volume(6) = {6};
Surface Loop(7) = {45, 46, 47, 48, 49, 50};
Volume(7) = {7};
Surface Loop(8) = {51, 52};
Volume(8) = {8};
Surface Loop(9) = {53, 54, 55, 56};
Volume(9) = {9};
Surface Loop(10) = {57, 58, 59, 60};
Volume(10) = {10};
Surface Loop(11) = {61, 62, 63, 64};
Volume(11) = {11};
Surface Loop(12) = {65, 66, 67, 68};
Volume(12) = {12};
